<?xml version="1.0"?>
<svg width="640" height="480" xmlns="http://www.w3.org/2000/svg" xmlns:svg="http://www.w3.org/2000/svg" style="vector-effect: non-scaling-stroke;">
 <!-- Created with SVG-edit - https://github.com/SVG-Edit/svgedit-->
 <g class="layer">
  <title>Layer 1</title>
  <text fill="#000000" font-family="Sans-serif" font-size="26" id="svg_3" stroke="#000000" stroke-dasharray="null" stroke-linecap="null" stroke-linejoin="null" stroke-width="0" text-anchor="middle" transform="matrix(5.0762 0 0 4.91667 -165.468 -675.625)" x="94.318014" xml:space="preserve" y="199.90678">C  A  L  Z</text>
  <polygon cx="57.5" cy="151.5" fill="#000000" id="svg_4" orient="point" point="5" points="57.5,127.49074252617453 63.14491498464298,143.7304410725406 80.33416077188983,144.0807314182642 66.63366430875594,154.4677074326943 71.61228746160745,170.92389731864853 57.5,161.10370298953018 43.38771253839255,170.92389731864853 48.36633569124407,154.4677074326943 34.66583922811016,144.0807314182642 51.85508501535702,143.7304410725406 57.49999999999999,127.49074252617453 63.14491498464298,143.7304410725406 " r="24.009257" r2="9.603703" shape="star" stroke="#000000" stroke-width="0" strokeWidth="0" strokecolor="#000000"/>
  <polygon cx="591.5" cy="358.5" fill="#000000" id="svg_5" orient="point" point="5" r="0" r2="0" shape="star" strokeWidth="0" strokecolor="#000000"/>
  <polygon cx="591.5" cy="359.5" fill="#000000" id="svg_6" orient="point" point="5" r="0" r2="0" shape="star" strokeWidth="0" strokecolor="#000000"/>
  <polygon cx="568.5" cy="385.5" fill="#000000" id="svg_7" orient="point" point="5" r="0" r2="0" shape="star" strokeWidth="0" strokecolor="none"/>
  <polygon cx="401.5" cy="386.5" fill="#000000" id="svg_8" orient="point" point="5" points="401.5,361.4489410292588 407.3898572069243,378.39330702623255 425.3249728742176,378.75879705095196 411.029989149687,389.5964811796192 416.22464301731077,406.76673243441866 401.5,396.5204235882965 386.77535698268923,406.76673243441866 391.970010850313,389.5964811796192 377.6750271257824,378.75879705095196 395.6101427930757,378.39330702623255 401.5,361.4489410292588 407.3898572069243,378.39330702623255 " r="25.051059" r2="10.020424" shape="star" stroke-width="0" strokeWidth="0" strokecolor="none"/>
  <polygon cx="401.5" cy="387.5" fill="#000000" id="svg_9" orient="point" point="5" points="401.5,336.1666666666667 413.56919051373876,370.88818438216776 450.3209011698179,371.63712762208604 421.02836046792714,393.8451489511656 431.67297628434693,429.02953904458064 401.5,408.03333333333336 371.32702371565307,429.02953904458064 381.97163953207286,393.8451489511656 352.6790988301821,371.63712762208604 389.43080948626124,370.88818438216776 401.5,336.1666666666667 413.56919051373876,370.88818438216776 " r="51.333333" r2="20.533333" shape="star" stroke-width="0" strokeWidth="0" strokecolor="none"/>
  <polygon cx="237.5" cy="398.5" fill="#000000" id="svg_10" orient="point" point="5" r="0" r2="0" shape="star" strokeWidth="0" strokecolor="none"/>
  <polygon cx="400.5" cy="387.5" fill="#000000" id="svg_11" orient="point" point="5" points="400.5,344.47545919929985 410.61567622772293,373.57696612682213 441.4187698891126,374.20468571740537 416.867507955645,392.8181257130379 425.7891905693073,422.3075846829447 400.5,404.7098163202801 375.2108094306927,422.3075846829447 384.132492044355,392.8181257130379 359.5812301108874,374.20468571740537 390.38432377227707,373.57696612682213 400.5,344.47545919929985 410.61567622772293,373.57696612682213 " r="43.024541" r2="17.209816" shape="star" stroke-width="0" strokeWidth="0" strokecolor="none"/>
  <polygon cx="353.5" cy="319.5" fill="#000000" id="svg_12" orient="point" point="5" points="353.5,319.5 353.5,319.5 353.5,319.5 353.5,319.5 353.5,319.5 353.5,319.5 353.5,319.5 353.5,319.5 353.5,319.5 353.5,319.5 353.5,319.5 353.5,319.5 " r="0" r2="0" shape="star" stroke-width="0" strokeWidth="0" strokecolor="none"/>
  <polygon cx="429.5" cy="54.5" fill="#000000" id="svg_13" orient="point" point="5" r="0" r2="0" shape="star" strokeWidth="0" strokecolor="none"/>
  <polygon cx="436.5" cy="63.5" fill="#000000" id="svg_14" orient="point" point="5" points="489,62.55718994140625 476.2423095703125,99.46332209266257 437.39666748046875,100.25940943107707 468.3583068847656,123.8647456963663 457.1075134277344,161.26274767291034 489,138.94558933874941 520.8924560546875,161.26274767291034 509.6416931152344,123.8647456963663 540.6033325195312,100.25940943107707 501.7576904296875,99.46332209266257 489,62.55718994140625 476.2423095703125,99.46332209266257 " r="0.942809" r2="0.377124" shape="star" stroke-width="0" strokeWidth="0" strokecolor="none"/>
  <polygon cx="62.5" cy="370.5" fill="#000000" id="svg_15" orient="point" point="5" points="76.49999952016151,327.39288330078125 90.09607534651514,367.0195007324219 131.49729125659724,367.87420654296875 98.49891826168096,393.21954345703125 110.49018908604558,433.3743896484375 76.49999952016151,409.41204833984375 42.509804836914554,433.3743896484375 54.50108589600495,393.21954345703125 21.502710342407227,367.87420654296875 62.90392369380788,367.0195007324219 76.49999952016151,327.39288330078125 90.09607534651514,367.0195007324219 " r="43.107102" r2="17.242841" shape="star" stroke-width="0" strokeWidth="0" strokecolor="none"/>
  <polygon cx="160.5" cy="42.5" fill="#000000" id="svg_16" orient="point" point="5" points="160.5,4.952992425790072 169.32783092793375,30.349533113815717 196.20932622083583,30.897336571644264 174.78373048833433,47.14106537134229 182.5695773198344,72.8761672154607 160.5,57.51880302968397 138.43042268016563,72.8761672154607 146.21626951166567,47.14106537134229 124.79067377916417,30.897336571644267 151.67216907206625,30.34953311381572 160.5,4.952992425790072 169.32783092793375,30.349533113815717 " r="37.547008" r2="15.018803" shape="star" stroke-width="0" strokeWidth="0" strokecolor="none"/>
  <polygon cx="324.5" cy="66.5" fill="#000000" id="svg_17" orient="point" point="5" points="324.5,20.52416093448889 335.30956806579184,51.62190594614157 368.2256213353916,52.292684398109465 341.99024853415665,72.18292624075622 351.5239201644796,103.69523513464608 324.5,84.89033562620445 297.4760798355204,103.69523513464608 307.00975146584335,72.18292624075622 280.7743786646084,52.29268439810947 313.69043193420816,51.62190594614157 324.5,20.52416093448889 335.30956806579184,51.62190594614156 " r="45.975839" r2="18.390336" shape="star" stroke-width="0" strokeWidth="0" strokecolor="none"/>
  <polygon cx="552.5" cy="377.5" fill="#000000" id="svg_18" orient="point" point="5" points="552.5,332.16176497088185 563.1596583660343,362.82823894659117 595.619223861764,363.48971488103695 569.7476895447056,383.1041140475852 579.1491459150857,414.1794026335221 552.5,395.63529401164726 525.8508540849143,414.1794026335221 535.2523104552944,383.1041140475852 509.380776138236,363.48971488103695 541.8403416339657,362.82823894659117 552.5,332.16176497088185 563.1596583660343,362.82823894659117 " r="45.338235" r2="18.135294" shape="star" stroke-width="0" strokeWidth="0" strokecolor="none"/>
  <polygon cx="201.5" cy="391.5" fill="#000000" id="svg_19" orient="point" point="5" points="201.5,390.1666666666667 201.8134854678893,391.0685242696667 202.7680753550602,391.0879773408334 202.00723014202407,391.66480906366667 202.28371366972328,392.57868932583324 201.5,392.03333333333336 200.71628633027672,392.57868932583324 200.99276985797593,391.66480906366667 200.2319246449398,391.0879773408334 201.1865145321107,391.0685242696667 201.5,390.1666666666667 201.8134854678893,391.0685242696667 " r="1.333333" r2="0.533333" shape="star" stroke-width="0" strokeWidth="0" strokecolor="none"/>
  <polygon cx="264.5" cy="407.5" fill="#000000" id="svg_20" orient="point" point="5" r="0" r2="0" shape="star" strokeWidth="0" strokecolor="none"/>
  <polygon cx="264.5" cy="407.5" fill="#000000" id="svg_21" orient="point" point="5" points="264.5,380.09359361187404 270.9436325973099,398.631100590904 290.5650413836603,399.03095467132295 274.92601655346414,410.88761813147084 280.6090814932747,429.67224852274 264.5,418.4625625552504 248.39091850672534,429.67224852274 254.07398344653586,410.88761813147084 238.43495861633969,399.03095467132295 258.0563674026901,398.631100590904 264.5,380.09359361187404 270.9436325973099,398.631100590904 " r="27.406406" r2="10.962563" shape="star" stroke-width="0" strokeWidth="0" strokecolor="none"/>
  <polygon cx="196.5" cy="145.5" fill="#000000" id="svg_22" orient="point" point="5" points="196.5,130.87885853369247 199.937636530231,140.76849923063878 210.40553186720507,140.98181880975073 202.062212746882,147.3072724760997 205.09409132557752,157.32875192340305 196.5,151.348456586523 187.90590867442248,157.32875192340305 190.937787253118,147.3072724760997 182.59446813279493,140.98181880975073 193.062363469769,140.76849923063878 196.5,130.87885853369247 199.937636530231,140.76849923063878 " r="14.621141" r2="5.848457" shape="star" stroke-width="0" strokeWidth="0" strokecolor="none"/>
  <polygon cx="543.5" cy="34.5" fill="#000000" id="svg_23" orient="point" point="5" points="543.5,20.902614630419244 546.6969370359908,30.099793662777557 556.4318819603162,30.29817684173427 548.6727527841265,36.18072926330629 551.492342589977,45.50051584305611 543.5,39.938954147832305 535.507657410023,45.50051584305611 538.3272472158735,36.18072926330629 530.5681180396838,30.29817684173427 540.3030629640092,30.099793662777557 543.5,20.902614630419244 546.6969370359908,30.099793662777557 " r="13.597385" r2="5.438954" shape="star" stroke-width="0" strokeWidth="0" strokecolor="none"/>
  <polygon cx="338.5" cy="167.5" fill="#000000" id="svg_24" orient="point" point="5" points="338.5,148.72649621289503 342.9139154639669,161.42476655690785 356.3546631104179,161.69866828582212 345.64186524416715,169.82053268567114 349.5347886599172,182.68808360773036 338.5,175.00940151484198 327.4652113400828,182.68808360773036 331.35813475583285,169.82053268567114 320.6453368895821,161.69866828582212 334.0860845360331,161.42476655690785 338.5,148.72649621289503 342.9139154639669,161.42476655690785 " r="18.773504" r2="7.509402" shape="star" stroke-width="0" strokeWidth="0" strokecolor="none"/>
  <polygon cx="175.5" cy="333.5" fill="#000000" id="svg_25" orient="point" point="5" points="219.5,339.0495300292969 224.30819702148438,352.882080078125 238.94956970214844,353.1804504394531 227.2798309326172,362.02783203125 231.52049255371094,376.0447998046875 219.5,367.6802062988281 207.47950744628906,376.0447998046875 211.7201690673828,362.02783203125 200.05043029785156,353.1804504394531 214.69180297851562,352.882080078125 219.5,339.0495300292969 224.30819702148438,352.882080078125 " r="20.450482" r2="8.180193" shape="star" stroke-width="0" strokeWidth="0" strokecolor="none"/>
  <polygon cx="491.5" cy="432.5" fill="#000000" id="svg_26" orient="point" point="5" points="491.5,409.08110923966626 497.00611144558906,424.92148775419184 513.7726886620197,425.2631647656464 500.4090754648079,435.3947340937414 505.2652786139726,451.44628061452045 491.5,441.8675563041335 477.7347213860274,451.44628061452045 482.5909245351921,435.3947340937414 469.22731133798027,425.2631647656464 485.99388855441094,424.92148775419184 491.5,409.08110923966626 497.00611144558906,424.92148775419184 " r="23.418891" r2="9.367556" shape="star" stroke-width="0" strokeWidth="0" strokecolor="none"/>
  <polygon cx="165.5" cy="433.5" fill="#000000" id="svg_27" orient="point" point="5" points="165.5,401.13403708283107 173.10969427158278,423.0261543842804 196.28185993854083,423.49836741928544 177.81274397541634,437.5006530322858 184.52423567895698,459.68461403929905 165.5,446.44638516686757 146.47576432104302,459.68461403929905 153.18725602458366,437.5006530322858 134.71814006145917,423.49836741928544 157.89030572841722,423.0261543842804 165.5,401.13403708283107 173.10969427158278,423.0261543842804 " r="32.365963" r2="12.946385" shape="star" stroke-width="0" strokeWidth="0" strokecolor="none"/>
 </g>
</svg>